# xmcd
#
# Track frame offsets:
#	150
#	19472
#	38270
#	61045
#	84505
#	100830
#	127405
#	149317
#	167995
#	192290
#	215712
#	242687
#
# Disc length: 3468 seconds
#
# Revision: 8
# Processed by: cddbd v1.5.2PL0 Copyright (c) Steve Scherf et al.
# Submitted via: audiograbber 1.83.01
#
DISCID=a90d8a0c
DTITLE=Runrig - Amazing things
DYEAR=1993
DGENRE=Rock
TTITLE0=Amazing things
TTITLE1=Wonderful
TTITLE2=The greatest flame
TTITLE3=Move a mountain
TTITLE4=Pog aon oidhche earraich (A kiss one spring evening)
TTITLE5=Dream fields
TTITLE6=Song of the earth
TTITLE7=Forever eyes of blue
TTITLE8=Sraideann na roinn-eorpa (Streets of Europe)
TTITLE9=Canada
TTITLE10=Ard (High)
TTITLE11=On the edge
EXTD=
EXTT0=
EXTT1=
EXTT2=
EXTT3=
EXTT4=
EXTT5=
EXTT6=
EXTT7=
EXTT8=
EXTT9=
EXTT10=
EXTT11=
PLAYORDER=
